<?xml version="1.0" encoding="UTF-8" standalone="no"?><svg viewBox="0 0 131 49" version="1.1" xmlns="http://www.w3.org/2000/svg" xmlns:xlink="http://www.w3.org/1999/xlink"><!--Generator: sketchtool 50.2 (55047) - http://www.bohemiancoding.com/sketch--><title>0FB049E9-EF3D-4601-959F-603A5832549C</title><desc>Created with sketchtool.</desc><defs/><g id="Page-1" stroke="none" stroke-width="1" fill-rule="evenodd"><g id="home" transform="translate(-636.000000, -170.000000)" fill="#000000"><path d="M691.128,189.516 C691.128,190.972 690.456,192.204 689.14,192.876 C688.216,192.344 687.124,192.064 686.004,191.98 C685.78,191.98 685.696,192.288 685.92,192.344 C693.396,194.052 692.752,205.028 683.876,205.028 L677.744,205.028 C675.364,205.028 673.292,202.536 673.292,200.548 C673.292,199.036 673.824,197.916 675.056,197.02 C676.148,197.748 677.604,198.112 678.92,198.112 C679.144,198.112 679.2,197.832 678.976,197.748 C678.192,197.692 677.38,197.384 676.652,197.02 C671.164,194.136 672.424,185.008 680.516,185.092 L686.592,185.092 C689.084,185.092 691.128,187.052 691.128,189.516 Z M696.308,185.12 L705.128,185.12 C707.62,185.12 709.636,187.164 709.636,189.628 C709.636,192.008 707.704,194.052 705.212,194.052 L705.24,200.576 C705.24,203.068 703.196,205.112 700.732,205.112 C698.324,205.112 696.308,203.068 696.308,200.576 L696.308,194.052 C693.816,194.052 691.884,192.008 691.884,189.628 C691.884,187.164 693.816,185.12 696.308,185.12 Z M720.136,184.84 C725.764,184.84 730.356,189.432 730.356,195.032 C730.356,200.66 725.764,205.168 720.136,205.168 C714.592,205.168 709.972,200.66 709.972,195.032 C709.972,189.432 714.592,184.84 720.136,184.84 Z M720.136,193.968 C719.632,193.968 719.128,194.388 719.128,195.032 C719.128,195.62 719.632,196.124 720.136,196.124 C720.724,196.124 721.228,195.62 721.228,195.032 C721.228,194.388 720.724,193.968 720.136,193.968 Z M735.536,205.056 C733.128,205.056 731.084,203.012 731.084,200.52 L731.084,189.544 C731.084,187.08 733.128,185.12 735.62,185.12 L741.892,185.12 C746.288,185.12 749.844,188.676 749.844,193.072 C749.844,195.816 748.556,198.224 746.428,199.708 C746.288,199.792 746.428,200.072 746.596,199.988 C747.52,199.568 748.388,198.98 749.116,198.14 C750.376,199.932 750.152,202.284 748.556,203.88 C746.96,205.476 743.936,205.784 742.424,203.74 L740.016,200.884 C739.876,203.236 737.972,205.056 735.536,205.056 Z M740.52,192.176 C740.296,192.176 740.156,192.232 740.016,192.316 L740.016,194.22 C740.156,194.304 740.296,194.304 740.52,194.304 C741.108,194.304 741.528,193.856 741.528,193.268 C741.528,192.68 741.108,192.176 740.52,192.176 Z M681.723696,182.252351 L679.419218,182.252351 C669.40316,182.148378 667.124054,192.476608 672.494869,197.223022 C672.994337,197.664423 672.494869,198 672.032483,198.389525 C670.365733,199.601707 669.646,201.116934 669.646,203.162492 C669.646,205.852021 672.449171,209.223402 675.66903,209.223402 L680.084195,209.223402 C675.613316,215.160878 668.504995,219 660.5,219 C646.969024,219 636,208.030976 636,194.5 C636,180.969024 646.969024,170 660.5,170 C669.569426,170 677.48786,174.927985 681.723692,182.252344 Z M750.684,189.6 C750.684,187.108 752.56,185.092 755.192,185.092 L762.5,185.092 C766.028,185.092 767.988,189.124 766.168,191.952 C765.272,193.408 763.956,193.912 762.276,193.968 C762.08,193.968 762.08,194.248 762.276,194.332 C763.816,194.528 765.328,194.192 766.448,193.016 C767.204,194.668 766.924,196.824 765.692,198.056 C764.852,198.98 763.732,199.316 762.556,199.456 C762.36,199.456 762.36,199.792 762.556,199.792 C764.012,199.932 765.468,199.652 766.504,198.42 C766.784,198.896 766.924,199.4 766.924,200.576 C766.924,202.312 765.608,205 762.5,205 L755.136,205 C752.644,205 750.684,202.984 750.684,200.576 L750.684,189.6 Z" id="logo"/></g></g></svg>