<?xml version="1.0" encoding="UTF-8" standalone="no"?>
<svg width="81px" height="30px" viewBox="0 0 81 30" version="1.1" xmlns="http://www.w3.org/2000/svg" xmlns:xlink="http://www.w3.org/1999/xlink">
    <!-- Generator: sketchtool 50.2 (55047) - http://www.bohemiancoding.com/sketch -->
    <title>1BF4E2D3-768E-422A-9ABE-B023CC6B4568</title>
    <desc>Created with sketchtool.</desc>
    <defs></defs>
    <g id="Page-1" stroke="none" stroke-width="1" fill="none" fill-rule="evenodd">
        <g id="home-mobie" transform="translate(-139.000000, -157.000000)" fill="#FFFFFF">
            <path d="M172.751837,168.948571 C172.751837,169.84 172.340408,170.594286 171.534694,171.005714 C170.96898,170.68 170.300408,170.508571 169.614694,170.457143 C169.477551,170.457143 169.426122,170.645714 169.563265,170.68 C174.140408,171.725714 173.746122,178.445714 168.311837,178.445714 L164.557551,178.445714 C163.100408,178.445714 161.831837,176.92 161.831837,175.702857 C161.831837,174.777143 162.157551,174.091429 162.911837,173.542857 C163.580408,173.988571 164.471837,174.211429 165.277551,174.211429 C165.414694,174.211429 165.44898,174.04 165.311837,173.988571 C164.831837,173.954286 164.334694,173.765714 163.88898,173.542857 C160.52898,171.777143 161.300408,166.188571 166.254694,166.24 L169.974694,166.24 C171.500408,166.24 172.751837,167.44 172.751837,168.948571 Z M175.923265,166.257143 L181.323265,166.257143 C182.84898,166.257143 184.083265,167.508571 184.083265,169.017143 C184.083265,170.474286 182.900408,171.725714 181.374694,171.725714 L181.391837,175.72 C181.391837,177.245714 180.140408,178.497143 178.631837,178.497143 C177.157551,178.497143 175.923265,177.245714 175.923265,175.72 L175.923265,171.725714 C174.397551,171.725714 173.214694,170.474286 173.214694,169.017143 C173.214694,167.508571 174.397551,166.257143 175.923265,166.257143 Z M190.511837,166.085714 C193.957551,166.085714 196.76898,168.897143 196.76898,172.325714 C196.76898,175.771429 193.957551,178.531429 190.511837,178.531429 C187.117551,178.531429 184.28898,175.771429 184.28898,172.325714 C184.28898,168.897143 187.117551,166.085714 190.511837,166.085714 Z M190.511837,171.674286 C190.203265,171.674286 189.894694,171.931429 189.894694,172.325714 C189.894694,172.685714 190.203265,172.994286 190.511837,172.994286 C190.871837,172.994286 191.180408,172.685714 191.180408,172.325714 C191.180408,171.931429 190.871837,171.674286 190.511837,171.674286 Z M199.940408,178.462857 C198.466122,178.462857 197.214694,177.211429 197.214694,175.685714 L197.214694,168.965714 C197.214694,167.457143 198.466122,166.257143 199.991837,166.257143 L203.831837,166.257143 C206.523265,166.257143 208.700408,168.434286 208.700408,171.125714 C208.700408,172.805714 207.911837,174.28 206.60898,175.188571 C206.523265,175.24 206.60898,175.411429 206.711837,175.36 C207.277551,175.102857 207.80898,174.742857 208.254694,174.228571 C209.026122,175.325714 208.88898,176.765714 207.911837,177.742857 C206.934694,178.72 205.083265,178.908571 204.157551,177.657143 L202.683265,175.908571 C202.597551,177.348571 201.431837,178.462857 199.940408,178.462857 Z M202.991837,170.577143 C202.854694,170.577143 202.76898,170.611429 202.683265,170.662857 L202.683265,171.828571 C202.76898,171.88 202.854694,171.88 202.991837,171.88 C203.351837,171.88 203.60898,171.605714 203.60898,171.245714 C203.60898,170.885714 203.351837,170.577143 202.991837,170.577143 Z M166.9941,164.501439 L165.583195,164.501439 C159.450914,164.437783 158.055543,170.761189 161.343797,173.667156 C161.649594,173.937402 161.343797,174.142857 161.060704,174.381342 C160.040245,175.123494 159.599592,176.051184 159.599592,177.303566 C159.599592,178.950217 161.315819,181.014328 163.287161,181.014328 L165.990323,181.014328 C163.25305,184.649517 158.901018,187 154,187 C145.715729,187 139,180.284271 139,172 C139,163.715729 145.715729,157 154,157 C159.55271,157 164.400731,160.017133 166.994097,164.501435 Z M209.214694,169 C209.214694,167.474286 210.363265,166.24 211.974694,166.24 L216.44898,166.24 C218.60898,166.24 219.80898,168.708571 218.694694,170.44 C218.146122,171.331429 217.340408,171.64 216.311837,171.674286 C216.191837,171.674286 216.191837,171.845714 216.311837,171.897143 C217.254694,172.017143 218.180408,171.811429 218.866122,171.091429 C219.32898,172.102857 219.157551,173.422857 218.403265,174.177143 C217.88898,174.742857 217.203265,174.948571 216.483265,175.034286 C216.363265,175.034286 216.363265,175.24 216.483265,175.24 C217.374694,175.325714 218.266122,175.154286 218.900408,174.4 C219.071837,174.691429 219.157551,175 219.157551,175.72 C219.157551,176.782857 218.351837,178.428571 216.44898,178.428571 L211.940408,178.428571 C210.414694,178.428571 209.214694,177.194286 209.214694,175.72 L209.214694,169 Z" id="logo"></path>
        </g>
    </g>
</svg>